<?xml version="1.0" standalone="no"?><!DOCTYPE svg PUBLIC "-//W3C//DTD SVG 1.1//EN" "http://www.w3.org/Graphics/SVG/1.1/DTD/svg11.dtd"><svg t="1603708490252" class="icon" viewBox="0 0 1024 1024" version="1.1" xmlns="http://www.w3.org/2000/svg" p-id="3348" xmlns:xlink="http://www.w3.org/1999/xlink" width="64" height="64"><defs><style type="text/css"></style></defs><path d="M932.977778 841.955556l0 11.377778c0 6.280533-5.097244 11.377778-11.377778 11.377778L147.911111 864.711111c-25.133511 0-45.511111-20.3776-45.511111-45.511111L102.4 170.666667c0-6.280533 5.097244-11.377778 11.377778-11.377778l11.377778 0c6.280533 0 11.377778 5.097244 11.377778 11.377778l0 648.533333c0 6.280533 5.097244 11.377778 11.377778 11.377778l773.688889 0C927.880533 830.577778 932.977778 835.675022 932.977778 841.955556zM618.450489 306.460444 484.681956 421.319111c-3.720533 3.185778-9.056711 3.640889-13.255111 1.1264l-145.442133-87.131022c-4.391822-2.628267-10.012444-2.002489-13.710222 1.536L174.1824 469.048889C171.9296 471.187911 170.666667 474.157511 170.666667 477.263644l0 128.955733c0 10.0352 12.037689 15.1552 19.262578 8.203378l121.776356-117.122844c3.6864-3.549867 9.284267-4.1984 13.687467-1.592889l167.332978 99.157333c3.822933 2.264178 8.612978 2.093511 12.265244-0.432356l135.941689-93.923556c1.103644-0.762311 2.332444-1.319822 3.618133-1.661156l268.504178-69.313422C918.084267 428.259556 921.6 423.719822 921.6 418.531556L921.6 236.361956c0-7.520711-7.168-12.970667-14.415644-10.968178L622.819556 304.128C621.203911 304.583111 619.713422 305.379556 618.450489 306.460444zM641.444978 544.915911l-134.2464 93.752889c-3.640889 2.548622-8.442311 2.730667-12.276622 0.489244l-168.982756-99.134578c-4.391822-2.571378-9.955556-1.922844-13.630578 1.592889L174.1824 673.848889C171.9296 675.987911 170.666667 678.957511 170.666667 682.063644L170.666667 785.066667c0 6.280533 5.097244 11.377778 11.377778 11.377778l728.177778 0c6.280533 0 11.377778-5.097244 11.377778-11.377778L921.6 486.411378c0-7.441067-7.020089-12.879644-14.222222-11.013689l-262.257778 67.834311C643.800178 543.573333 642.56 544.142222 641.444978 544.915911z" p-id="3349"></path></svg>